<svg width="47" height="35" viewBox="0 0 47 35" fill="none" xmlns="http://www.w3.org/2000/svg">
  <path d="M11.25 34.7188C9.02083 34.7188 7.0625 34.2917 5.375 33.4375C3.6875 32.5625 2.36458 31.3646 1.40625 29.8438C0.46875 28.3021 0 26.5521 0 24.5938V24.5312C0 22.4896 0.510417 20.75 1.53125 19.3125C2.55208 17.8542 4.03125 16.7083 5.96875 15.875C7.90625 15.0417 10.2604 14.5312 13.0312 14.3438L26.0938 13.5312V19.2188L14.4062 19.9688C12.6562 20.0729 11.3229 20.4896 10.4062 21.2188C9.48958 21.9271 9.03125 22.875 9.03125 24.0625V24.125C9.03125 25.3542 9.5 26.3229 10.4375 27.0312C11.375 27.7188 12.6354 28.0625 14.2188 28.0625C15.5729 28.0625 16.7812 27.8021 17.8438 27.2812C18.9271 26.7396 19.7708 26.0104 20.375 25.0938C21 24.1562 21.3125 23.1042 21.3125 21.9375V11.7812C21.3125 10.3021 20.8438 9.13542 19.9062 8.28125C18.9688 7.40625 17.6042 6.96875 15.8125 6.96875C14.1042 6.96875 12.75 7.32292 11.75 8.03125C10.75 8.73958 10.1354 9.63542 9.90625 10.7188L9.84375 11H1.5L1.53125 10.625C1.69792 8.5625 2.375 6.72917 3.5625 5.125C4.77083 3.52083 6.4375 2.27083 8.5625 1.375C10.7083 0.458333 13.25 0 16.1875 0C19.0833 0 21.5938 0.46875 23.7188 1.40625C25.8438 2.32292 27.4896 3.625 28.6562 5.3125C29.8438 7 30.4375 8.96875 30.4375 11.2188V34.1875H21.3125V29.1875H21.125C20.5 30.3333 19.6875 31.3229 18.6875 32.1562C17.7083 32.9688 16.5938 33.6042 15.3438 34.0625C14.0938 34.5 12.7292 34.7188 11.25 34.7188Z" fill="#393D3F"/>
  <path d="M41.0938 34.7188C39.6771 34.7188 38.4792 34.2292 37.5 33.25C36.5208 32.2708 36.0312 31.0729 36.0312 29.6562C36.0312 28.2396 36.5208 27.0417 37.5 26.0625C38.4792 25.0833 39.6771 24.5938 41.0938 24.5938C42.5104 24.5938 43.7083 25.0833 44.6875 26.0625C45.6667 27.0417 46.1562 28.2396 46.1562 29.6562C46.1562 31.0729 45.6667 32.2708 44.6875 33.25C43.7083 34.2292 42.5104 34.7188 41.0938 34.7188Z" fill="#393D3F"/>
</svg>
