<svg width="374" height="88" viewBox="0 0 374 88" fill="none" xmlns="http://www.w3.org/2000/svg">
<g filter="url(#filter0_d_40000010_9942)">
<path d="M114 15C114 8.37258 119.373 3 126 3H358C364.627 3 370 8.37258 370 15V71C370 77.6274 364.627 83 358 83H126C119.373 83 114 77.6274 114 71V15Z" fill="white" shape-rendering="crispEdges"></path>
<path d="M126 3.5H358C364.351 3.5 369.5 8.64873 369.5 15V71C369.5 77.3513 364.351 82.5 358 82.5H126C119.649 82.5 114.5 77.3513 114.5 71V15C114.5 8.64873 119.649 3.5 126 3.5Z" stroke="#E5E5E4" shape-rendering="crispEdges"></path>
<path d="M130 27C130 22.5817 133.582 19 138 19H170C174.418 19 178 22.5817 178 27V59C178 63.4183 174.418 67 170 67H138C133.582 67 130 63.4183 130 59V27Z" fill="#F7F7F6"></path>
<path d="M160.226 36C160.513 36.0001 160.767 36.1841 160.858 36.4561L161.886 39.5381L163.741 39.8887C163.833 39.9057 163.921 39.9421 163.997 39.9951C164.416 40.2851 164.666 40.765 164.666 41.2783V45.333C164.666 45.7009 164.368 45.9998 164 46H162.639C162.867 46.3926 163 46.8471 163 47.333C163 48.8033 161.804 50 160.333 50C158.863 50 157.666 48.8033 157.666 47.333C157.666 46.8471 157.8 46.3926 158.028 46H151.972C152.2 46.3926 152.333 46.8471 152.333 47.333C152.333 48.8033 151.137 50 149.666 50C148.196 49.9998 147 48.8032 147 47.333C147 46.8471 147.133 46.3926 147.361 46H145.666C145.298 45.9998 145 45.7009 145 45.333V44.667C145 44.2991 145.298 44.0002 145.666 44C146.034 44 146.333 44.299 146.333 44.667H156.666V39.333C156.666 38.9652 156.965 38.667 157.333 38.667C157.701 38.667 158 38.9652 158 39.333V44.667H163.333V41.2783C163.333 41.2367 163.323 41.1967 163.303 41.1621L161.254 40.7754C161.016 40.7307 160.822 40.5604 160.745 40.3311L159.745 37.333H146.333V37.667C146.333 38.0348 146.034 38.333 145.666 38.333C145.298 38.3328 145 38.0347 145 37.667V36.667C145 36.2991 145.298 36.0002 145.666 36H160.226ZM149.666 46C148.931 46.0002 148.333 46.5979 148.333 47.333C148.333 48.0682 148.931 48.6668 149.666 48.667C150.402 48.667 151 48.0683 151 47.333C151 46.5978 150.401 46 149.666 46ZM160.333 46C159.598 46 159 46.5978 159 47.333C159 48.0683 159.598 48.667 160.333 48.667C161.069 48.667 161.666 48.0683 161.666 47.333C161.666 46.5978 161.068 46 160.333 46ZM156 47C156.368 47.0002 156.666 47.2991 156.666 47.667C156.666 48.0347 156.368 48.3328 156 48.333H154C153.632 48.333 153.333 48.0348 153.333 47.667C153.333 47.299 153.632 47 154 47H156ZM146.666 41.667C147.034 41.667 147.333 41.9651 147.333 42.333C147.333 42.701 147.034 43 146.666 43H145C144.632 43 144.333 42.701 144.333 42.333C144.333 41.9651 144.632 41.667 145 41.667H146.666ZM147.666 39.333C148.034 39.333 148.333 39.632 148.333 40C148.333 40.368 148.034 40.667 147.666 40.667H144C143.632 40.667 143.333 40.368 143.333 40C143.333 39.632 143.632 39.333 144 39.333H147.666Z" fill="#116DB4"></path>
<path d="M190.792 32.2881H188.201V30.9277H190.792C191.243 30.9277 191.608 30.8548 191.886 30.709C192.164 30.5632 192.367 30.3626 192.494 30.1074C192.626 29.8477 192.692 29.5514 192.692 29.2188C192.692 28.9043 192.626 28.6104 192.494 28.3369C192.367 28.0589 192.164 27.8356 191.886 27.667C191.608 27.4984 191.243 27.4141 190.792 27.4141H188.728V36H187.012V26.0469H190.792C191.562 26.0469 192.216 26.1836 192.754 26.457C193.296 26.7259 193.709 27.0996 193.991 27.5781C194.274 28.0521 194.415 28.5944 194.415 29.2051C194.415 29.8477 194.274 30.3991 193.991 30.8594C193.709 31.3197 193.296 31.6729 192.754 31.9189C192.216 32.165 191.562 32.2881 190.792 32.2881ZM197.443 30.0117V36H195.796V28.6035H197.368L197.443 30.0117ZM199.706 28.5557L199.692 30.0869C199.592 30.0687 199.483 30.055 199.364 30.0459C199.25 30.0368 199.136 30.0322 199.022 30.0322C198.74 30.0322 198.492 30.0732 198.277 30.1553C198.063 30.2327 197.883 30.3467 197.737 30.4971C197.596 30.6429 197.487 30.8206 197.409 31.0303C197.332 31.2399 197.286 31.4746 197.272 31.7344L196.896 31.7617C196.896 31.2969 196.942 30.8662 197.033 30.4697C197.124 30.0732 197.261 29.7246 197.443 29.4238C197.63 29.123 197.863 28.8883 198.141 28.7197C198.423 28.5511 198.749 28.4668 199.118 28.4668C199.218 28.4668 199.326 28.4759 199.439 28.4941C199.558 28.5124 199.647 28.5329 199.706 28.5557ZM200.246 32.3838V32.2266C200.246 31.6934 200.324 31.1989 200.479 30.7432C200.633 30.2829 200.857 29.8841 201.148 29.5469C201.445 29.2051 201.805 28.9408 202.229 28.7539C202.657 28.5625 203.14 28.4668 203.678 28.4668C204.22 28.4668 204.703 28.5625 205.127 28.7539C205.555 28.9408 205.918 29.2051 206.214 29.5469C206.51 29.8841 206.736 30.2829 206.891 30.7432C207.046 31.1989 207.123 31.6934 207.123 32.2266V32.3838C207.123 32.917 207.046 33.4115 206.891 33.8672C206.736 34.3229 206.51 34.7217 206.214 35.0635C205.918 35.4007 205.558 35.665 205.134 35.8564C204.71 36.0433 204.229 36.1367 203.691 36.1367C203.149 36.1367 202.664 36.0433 202.235 35.8564C201.812 35.665 201.451 35.4007 201.155 35.0635C200.859 34.7217 200.633 34.3229 200.479 33.8672C200.324 33.4115 200.246 32.917 200.246 32.3838ZM201.894 32.2266V32.3838C201.894 32.7165 201.928 33.0309 201.996 33.3271C202.064 33.6234 202.172 33.8831 202.317 34.1064C202.463 34.3298 202.65 34.5052 202.878 34.6328C203.106 34.7604 203.377 34.8242 203.691 34.8242C203.997 34.8242 204.261 34.7604 204.484 34.6328C204.712 34.5052 204.899 34.3298 205.045 34.1064C205.191 33.8831 205.298 33.6234 205.366 33.3271C205.439 33.0309 205.476 32.7165 205.476 32.3838V32.2266C205.476 31.8984 205.439 31.5885 205.366 31.2969C205.298 31.0007 205.188 30.7386 205.038 30.5107C204.892 30.2829 204.705 30.1051 204.478 29.9775C204.254 29.8454 203.988 29.7793 203.678 29.7793C203.368 29.7793 203.099 29.8454 202.871 29.9775C202.648 30.1051 202.463 30.2829 202.317 30.5107C202.172 30.7386 202.064 31.0007 201.996 31.2969C201.928 31.5885 201.894 31.8984 201.894 32.2266ZM210.158 30.0254V38.8438H208.511V28.6035H210.028L210.158 30.0254ZM214.978 32.2334V32.377C214.978 32.9147 214.914 33.4137 214.786 33.874C214.663 34.3298 214.479 34.7285 214.232 35.0703C213.991 35.4076 213.692 35.6696 213.337 35.8564C212.981 36.0433 212.571 36.1367 212.106 36.1367C211.646 36.1367 211.243 36.0524 210.896 35.8838C210.555 35.7106 210.265 35.4668 210.028 35.1523C209.791 34.8379 209.6 34.4688 209.454 34.0449C209.313 33.6165 209.213 33.1471 209.153 32.6367V32.083C209.213 31.5407 209.313 31.0485 209.454 30.6064C209.6 30.1644 209.791 29.7839 210.028 29.4648C210.265 29.1458 210.555 28.8997 210.896 28.7266C211.238 28.5534 211.637 28.4668 212.093 28.4668C212.558 28.4668 212.97 28.5579 213.33 28.7402C213.69 28.918 213.993 29.1732 214.239 29.5059C214.485 29.834 214.67 30.2305 214.793 30.6953C214.916 31.1556 214.978 31.6683 214.978 32.2334ZM213.33 32.377V32.2334C213.33 31.8916 213.298 31.5749 213.234 31.2832C213.171 30.987 213.07 30.7272 212.934 30.5039C212.797 30.2806 212.621 30.1074 212.407 29.9844C212.198 29.8568 211.945 29.793 211.648 29.793C211.357 29.793 211.106 29.8431 210.896 29.9434C210.687 30.0391 210.511 30.1735 210.37 30.3467C210.229 30.5199 210.119 30.7227 210.042 30.9551C209.965 31.1829 209.91 31.4313 209.878 31.7002V33.0264C209.933 33.3545 210.026 33.6553 210.158 33.9287C210.29 34.2021 210.477 34.4209 210.719 34.585C210.965 34.7445 211.279 34.8242 211.662 34.8242C211.958 34.8242 212.211 34.7604 212.421 34.6328C212.631 34.5052 212.801 34.3298 212.934 34.1064C213.07 33.8786 213.171 33.6165 213.234 33.3203C213.298 33.0241 213.33 32.7096 213.33 32.377ZM216.064 32.3838V32.2266C216.064 31.6934 216.142 31.1989 216.297 30.7432C216.452 30.2829 216.675 29.8841 216.967 29.5469C217.263 29.2051 217.623 28.9408 218.047 28.7539C218.475 28.5625 218.958 28.4668 219.496 28.4668C220.038 28.4668 220.521 28.5625 220.945 28.7539C221.374 28.9408 221.736 29.2051 222.032 29.5469C222.328 29.8841 222.554 30.2829 222.709 30.7432C222.864 31.1989 222.941 31.6934 222.941 32.2266V32.3838C222.941 32.917 222.864 33.4115 222.709 33.8672C222.554 34.3229 222.328 34.7217 222.032 35.0635C221.736 35.4007 221.376 35.665 220.952 35.8564C220.528 36.0433 220.048 36.1367 219.51 36.1367C218.967 36.1367 218.482 36.0433 218.054 35.8564C217.63 35.665 217.27 35.4007 216.974 35.0635C216.677 34.7217 216.452 34.3229 216.297 33.8672C216.142 33.4115 216.064 32.917 216.064 32.3838ZM217.712 32.2266V32.3838C217.712 32.7165 217.746 33.0309 217.814 33.3271C217.883 33.6234 217.99 33.8831 218.136 34.1064C218.282 34.3298 218.468 34.5052 218.696 34.6328C218.924 34.7604 219.195 34.8242 219.51 34.8242C219.815 34.8242 220.079 34.7604 220.303 34.6328C220.531 34.5052 220.717 34.3298 220.863 34.1064C221.009 33.8831 221.116 33.6234 221.185 33.3271C221.257 33.0309 221.294 32.7165 221.294 32.3838V32.2266C221.294 31.8984 221.257 31.5885 221.185 31.2969C221.116 31.0007 221.007 30.7386 220.856 30.5107C220.711 30.2829 220.524 30.1051 220.296 29.9775C220.073 29.8454 219.806 29.7793 219.496 29.7793C219.186 29.7793 218.917 29.8454 218.689 29.9775C218.466 30.1051 218.282 30.2829 218.136 30.5107C217.99 30.7386 217.883 31.0007 217.814 31.2969C217.746 31.5885 217.712 31.8984 217.712 32.2266ZM228.472 33.9971C228.472 33.833 228.431 33.6849 228.349 33.5527C228.267 33.416 228.109 33.293 227.877 33.1836C227.649 33.0742 227.312 32.974 226.865 32.8828C226.473 32.7962 226.113 32.6937 225.785 32.5752C225.462 32.4521 225.184 32.304 224.951 32.1309C224.719 31.9577 224.539 31.7526 224.411 31.5156C224.284 31.2786 224.22 31.0052 224.22 30.6953C224.22 30.3945 224.286 30.1097 224.418 29.8408C224.55 29.5719 224.739 29.335 224.985 29.1299C225.231 28.9248 225.53 28.763 225.881 28.6445C226.236 28.526 226.633 28.4668 227.07 28.4668C227.69 28.4668 228.221 28.5716 228.663 28.7812C229.11 28.9863 229.451 29.2666 229.688 29.6221C229.925 29.973 230.044 30.3695 230.044 30.8115H228.396C228.396 30.6156 228.346 30.4333 228.246 30.2646C228.15 30.0915 228.005 29.9525 227.809 29.8477C227.613 29.7383 227.367 29.6836 227.07 29.6836C226.788 29.6836 226.553 29.7292 226.366 29.8203C226.184 29.9069 226.047 30.0208 225.956 30.1621C225.869 30.3034 225.826 30.4583 225.826 30.627C225.826 30.75 225.849 30.8617 225.895 30.9619C225.945 31.0576 226.027 31.1465 226.141 31.2285C226.255 31.306 226.41 31.3789 226.605 31.4473C226.806 31.5156 227.057 31.5817 227.357 31.6455C227.923 31.764 228.408 31.9167 228.813 32.1035C229.224 32.2858 229.538 32.5228 229.757 32.8145C229.976 33.1016 230.085 33.4661 230.085 33.9082C230.085 34.2363 230.014 34.5371 229.873 34.8105C229.736 35.0794 229.536 35.3141 229.271 35.5146C229.007 35.7106 228.69 35.8633 228.321 35.9727C227.957 36.082 227.547 36.1367 227.091 36.1367C226.421 36.1367 225.854 36.0182 225.389 35.7812C224.924 35.5397 224.571 35.2321 224.329 34.8584C224.092 34.4801 223.974 34.0882 223.974 33.6826H225.566C225.585 33.988 225.669 34.2318 225.819 34.4141C225.974 34.5918 226.166 34.7217 226.394 34.8037C226.626 34.8812 226.865 34.9199 227.111 34.9199C227.408 34.9199 227.656 34.8812 227.856 34.8037C228.057 34.7217 228.21 34.6123 228.314 34.4756C228.419 34.3343 228.472 34.1748 228.472 33.9971ZM234.788 36.1367C234.241 36.1367 233.747 36.0479 233.305 35.8701C232.867 35.6878 232.493 35.4349 232.184 35.1113C231.878 34.7878 231.644 34.4072 231.479 33.9697C231.315 33.5322 231.233 33.0605 231.233 32.5547V32.2812C231.233 31.7025 231.318 31.1784 231.486 30.709C231.655 30.2396 231.89 29.8385 232.19 29.5059C232.491 29.1686 232.847 28.9111 233.257 28.7334C233.667 28.5557 234.111 28.4668 234.59 28.4668C235.118 28.4668 235.581 28.5557 235.978 28.7334C236.374 28.9111 236.702 29.1618 236.962 29.4854C237.226 29.8044 237.422 30.1849 237.55 30.627C237.682 31.069 237.748 31.5566 237.748 32.0898V32.7939H232.033V31.6113H236.121V31.4814C236.112 31.1852 236.053 30.9072 235.943 30.6475C235.839 30.3877 235.677 30.1781 235.458 30.0186C235.239 29.859 234.948 29.7793 234.583 29.7793C234.31 29.7793 234.066 29.8385 233.852 29.957C233.642 30.071 233.466 30.2373 233.325 30.4561C233.184 30.6748 233.075 30.9391 232.997 31.249C232.924 31.5544 232.888 31.8984 232.888 32.2812V32.5547C232.888 32.8783 232.931 33.179 233.018 33.457C233.109 33.7305 233.241 33.9697 233.414 34.1748C233.587 34.3799 233.797 34.5417 234.043 34.6602C234.289 34.7741 234.569 34.8311 234.884 34.8311C235.28 34.8311 235.633 34.7513 235.943 34.5918C236.253 34.4323 236.522 34.2067 236.75 33.915L237.618 34.7559C237.459 34.9883 237.251 35.2116 236.996 35.4258C236.741 35.6354 236.429 35.8063 236.06 35.9385C235.695 36.0706 235.271 36.1367 234.788 36.1367ZM243.545 34.4688V25.5H245.199V36H243.702L243.545 34.4688ZM238.732 32.3838V32.2402C238.732 31.6797 238.799 31.1693 238.931 30.709C239.063 30.2441 239.254 29.8454 239.505 29.5127C239.756 29.1755 240.061 28.918 240.421 28.7402C240.781 28.5579 241.187 28.4668 241.638 28.4668C242.084 28.4668 242.476 28.5534 242.813 28.7266C243.151 28.8997 243.438 29.1481 243.675 29.4717C243.912 29.7907 244.101 30.1735 244.242 30.6201C244.383 31.0622 244.484 31.5544 244.543 32.0967V32.5547C244.484 33.0833 244.383 33.5664 244.242 34.0039C244.101 34.4414 243.912 34.8197 243.675 35.1387C243.438 35.4577 243.148 35.7038 242.807 35.877C242.469 36.0501 242.075 36.1367 241.624 36.1367C241.177 36.1367 240.774 36.0433 240.414 35.8564C240.059 35.6696 239.756 35.4076 239.505 35.0703C239.254 34.7331 239.063 34.3366 238.931 33.8809C238.799 33.4206 238.732 32.9215 238.732 32.3838ZM240.38 32.2402V32.3838C240.38 32.721 240.41 33.0355 240.469 33.3271C240.533 33.6188 240.631 33.8763 240.763 34.0996C240.895 34.3184 241.066 34.4915 241.275 34.6191C241.49 34.7422 241.745 34.8037 242.041 34.8037C242.415 34.8037 242.722 34.7217 242.964 34.5576C243.205 34.3936 243.395 34.1725 243.531 33.8945C243.673 33.612 243.768 33.2975 243.818 32.9512V31.7139C243.791 31.445 243.734 31.1943 243.647 30.9619C243.565 30.7295 243.454 30.5267 243.312 30.3535C243.171 30.1758 242.996 30.0391 242.786 29.9434C242.581 29.8431 242.337 29.793 242.055 29.793C241.754 29.793 241.499 29.8568 241.289 29.9844C241.079 30.112 240.906 30.2874 240.77 30.5107C240.637 30.734 240.539 30.9938 240.476 31.29C240.412 31.5863 240.38 31.903 240.38 32.2402ZM252.418 34.3594L254.127 28.6035H255.18L254.893 30.3262L253.17 36H252.227L252.418 34.3594ZM251.413 28.6035L252.746 34.3867L252.855 36H251.803L249.8 28.6035H251.413ZM256.779 34.3184L258.071 28.6035H259.678L257.682 36H256.629L256.779 34.3184ZM255.357 28.6035L257.046 34.291L257.258 36H256.314L254.571 30.3193L254.284 28.6035H255.357ZM262.562 28.6035V36H260.908V28.6035H262.562ZM260.799 26.6621C260.799 26.4115 260.881 26.2041 261.045 26.04C261.214 25.8714 261.446 25.7871 261.742 25.7871C262.034 25.7871 262.264 25.8714 262.433 26.04C262.601 26.2041 262.686 26.4115 262.686 26.6621C262.686 26.9082 262.601 27.1133 262.433 27.2773C262.264 27.4414 262.034 27.5234 261.742 27.5234C261.446 27.5234 261.214 27.4414 261.045 27.2773C260.881 27.1133 260.799 26.9082 260.799 26.6621ZM267.758 28.6035V29.8066H263.588V28.6035H267.758ZM264.791 26.792H266.438V33.9561C266.438 34.1839 266.47 34.3594 266.534 34.4824C266.603 34.6009 266.696 34.6807 266.814 34.7217C266.933 34.7627 267.072 34.7832 267.231 34.7832C267.345 34.7832 267.455 34.7764 267.56 34.7627C267.664 34.749 267.749 34.7354 267.812 34.7217L267.819 35.9795C267.683 36.0205 267.523 36.057 267.341 36.0889C267.163 36.1208 266.958 36.1367 266.726 36.1367C266.347 36.1367 266.012 36.0706 265.721 35.9385C265.429 35.8018 265.201 35.5807 265.037 35.2754C264.873 34.9701 264.791 34.5645 264.791 34.0586V26.792ZM270.656 25.5V36H269.016V25.5H270.656ZM270.369 32.0283L269.836 32.0215C269.84 31.5111 269.911 31.0394 270.048 30.6064C270.189 30.1735 270.385 29.7975 270.636 29.4785C270.891 29.1549 271.196 28.9066 271.552 28.7334C271.907 28.5557 272.301 28.4668 272.734 28.4668C273.099 28.4668 273.427 28.5169 273.719 28.6172C274.015 28.7174 274.27 28.8792 274.484 29.1025C274.699 29.3213 274.86 29.6084 274.97 29.9639C275.084 30.3148 275.141 30.7432 275.141 31.249V36H273.486V31.2354C273.486 30.8799 273.434 30.5973 273.329 30.3877C273.229 30.1781 273.081 30.0277 272.885 29.9365C272.689 29.8408 272.45 29.793 272.167 29.793C271.871 29.793 271.609 29.8522 271.381 29.9707C271.158 30.0892 270.971 30.251 270.82 30.4561C270.67 30.6611 270.556 30.8981 270.479 31.167C270.406 31.4359 270.369 31.723 270.369 32.0283ZM285.695 33.4365C285.695 33.2314 285.663 33.0492 285.6 32.8896C285.54 32.7301 285.433 32.5843 285.278 32.4521C285.123 32.32 284.905 32.1924 284.622 32.0693C284.344 31.9417 283.989 31.8118 283.556 31.6797C283.082 31.5339 282.644 31.3721 282.243 31.1943C281.847 31.012 281.5 30.8024 281.204 30.5654C280.908 30.3239 280.678 30.0482 280.514 29.7383C280.35 29.4238 280.268 29.0615 280.268 28.6514C280.268 28.2458 280.352 27.8766 280.521 27.5439C280.694 27.2113 280.938 26.9242 281.252 26.6826C281.571 26.4365 281.947 26.2474 282.38 26.1152C282.813 25.9785 283.291 25.9102 283.815 25.9102C284.554 25.9102 285.189 26.0469 285.723 26.3203C286.26 26.5938 286.673 26.9606 286.96 27.4209C287.252 27.8812 287.397 28.3893 287.397 28.9453H285.695C285.695 28.6172 285.625 28.3278 285.483 28.0771C285.347 27.8219 285.137 27.6214 284.854 27.4756C284.576 27.3298 284.223 27.2568 283.795 27.2568C283.389 27.2568 283.052 27.3184 282.783 27.4414C282.514 27.5645 282.314 27.7308 282.182 27.9404C282.049 28.1501 281.983 28.387 281.983 28.6514C281.983 28.8382 282.027 29.0091 282.113 29.1641C282.2 29.3145 282.332 29.4557 282.51 29.5879C282.688 29.7155 282.911 29.8363 283.18 29.9502C283.449 30.0641 283.765 30.1735 284.13 30.2783C284.681 30.4424 285.162 30.6247 285.572 30.8252C285.982 31.0212 286.324 31.2445 286.598 31.4951C286.871 31.7458 287.076 32.0306 287.213 32.3496C287.35 32.6641 287.418 33.0218 287.418 33.4229C287.418 33.8421 287.334 34.2204 287.165 34.5576C286.996 34.8903 286.755 35.1751 286.44 35.4121C286.131 35.6445 285.757 35.8245 285.319 35.9521C284.886 36.0752 284.403 36.1367 283.87 36.1367C283.392 36.1367 282.92 36.0729 282.455 35.9453C281.995 35.8177 281.576 35.624 281.197 35.3643C280.819 35.0999 280.518 34.7718 280.295 34.3799C280.072 33.9834 279.96 33.5208 279.96 32.9922H281.676C281.676 33.3158 281.73 33.5915 281.84 33.8193C281.954 34.0472 282.111 34.234 282.312 34.3799C282.512 34.5212 282.744 34.626 283.009 34.6943C283.278 34.7627 283.565 34.7969 283.87 34.7969C284.271 34.7969 284.606 34.7399 284.875 34.626C285.148 34.512 285.354 34.3525 285.49 34.1475C285.627 33.9424 285.695 33.7054 285.695 33.4365ZM290.398 25.5V36H288.758V25.5H290.398ZM290.111 32.0283L289.578 32.0215C289.583 31.5111 289.653 31.0394 289.79 30.6064C289.931 30.1735 290.127 29.7975 290.378 29.4785C290.633 29.1549 290.938 28.9066 291.294 28.7334C291.649 28.5557 292.044 28.4668 292.477 28.4668C292.841 28.4668 293.169 28.5169 293.461 28.6172C293.757 28.7174 294.012 28.8792 294.227 29.1025C294.441 29.3213 294.603 29.6084 294.712 29.9639C294.826 30.3148 294.883 30.7432 294.883 31.249V36H293.229V31.2354C293.229 30.8799 293.176 30.5973 293.071 30.3877C292.971 30.1781 292.823 30.0277 292.627 29.9365C292.431 29.8408 292.192 29.793 291.909 29.793C291.613 29.793 291.351 29.8522 291.123 29.9707C290.9 30.0892 290.713 30.251 290.562 30.4561C290.412 30.6611 290.298 30.8981 290.221 31.167C290.148 31.4359 290.111 31.723 290.111 32.0283ZM298.314 28.6035V36H296.66V28.6035H298.314ZM296.551 26.6621C296.551 26.4115 296.633 26.2041 296.797 26.04C296.965 25.8714 297.198 25.7871 297.494 25.7871C297.786 25.7871 298.016 25.8714 298.185 26.04C298.353 26.2041 298.438 26.4115 298.438 26.6621C298.438 26.9082 298.353 27.1133 298.185 27.2773C298.016 27.4414 297.786 27.5234 297.494 27.5234C297.198 27.5234 296.965 27.4414 296.797 27.2773C296.633 27.1133 296.551 26.9082 296.551 26.6621ZM301.773 30.0254V38.8438H300.126V28.6035H301.644L301.773 30.0254ZM306.593 32.2334V32.377C306.593 32.9147 306.529 33.4137 306.401 33.874C306.278 34.3298 306.094 34.7285 305.848 35.0703C305.606 35.4076 305.308 35.6696 304.952 35.8564C304.597 36.0433 304.187 36.1367 303.722 36.1367C303.261 36.1367 302.858 36.0524 302.512 35.8838C302.17 35.7106 301.881 35.4668 301.644 35.1523C301.407 34.8379 301.215 34.4688 301.069 34.0449C300.928 33.6165 300.828 33.1471 300.769 32.6367V32.083C300.828 31.5407 300.928 31.0485 301.069 30.6064C301.215 30.1644 301.407 29.7839 301.644 29.4648C301.881 29.1458 302.17 28.8997 302.512 28.7266C302.854 28.5534 303.252 28.4668 303.708 28.4668C304.173 28.4668 304.585 28.5579 304.945 28.7402C305.305 28.918 305.608 29.1732 305.854 29.5059C306.101 29.834 306.285 30.2305 306.408 30.6953C306.531 31.1556 306.593 31.6683 306.593 32.2334ZM304.945 32.377V32.2334C304.945 31.8916 304.913 31.5749 304.85 31.2832C304.786 30.987 304.686 30.7272 304.549 30.5039C304.412 30.2806 304.237 30.1074 304.022 29.9844C303.813 29.8568 303.56 29.793 303.264 29.793C302.972 29.793 302.721 29.8431 302.512 29.9434C302.302 30.0391 302.127 30.1735 301.985 30.3467C301.844 30.5199 301.735 30.7227 301.657 30.9551C301.58 31.1829 301.525 31.4313 301.493 31.7002V33.0264C301.548 33.3545 301.641 33.6553 301.773 33.9287C301.906 34.2021 302.092 34.4209 302.334 34.585C302.58 34.7445 302.895 34.8242 303.277 34.8242C303.574 34.8242 303.826 34.7604 304.036 34.6328C304.246 34.5052 304.417 34.3298 304.549 34.1064C304.686 33.8786 304.786 33.6165 304.85 33.3203C304.913 33.0241 304.945 32.7096 304.945 32.377ZM309.648 30.0254V38.8438H308.001V28.6035H309.519L309.648 30.0254ZM314.468 32.2334V32.377C314.468 32.9147 314.404 33.4137 314.276 33.874C314.153 34.3298 313.969 34.7285 313.723 35.0703C313.481 35.4076 313.183 35.6696 312.827 35.8564C312.472 36.0433 312.062 36.1367 311.597 36.1367C311.136 36.1367 310.733 36.0524 310.387 35.8838C310.045 35.7106 309.756 35.4668 309.519 35.1523C309.282 34.8379 309.09 34.4688 308.944 34.0449C308.803 33.6165 308.703 33.1471 308.644 32.6367V32.083C308.703 31.5407 308.803 31.0485 308.944 30.6064C309.09 30.1644 309.282 29.7839 309.519 29.4648C309.756 29.1458 310.045 28.8997 310.387 28.7266C310.729 28.5534 311.127 28.4668 311.583 28.4668C312.048 28.4668 312.46 28.5579 312.82 28.7402C313.18 28.918 313.483 29.1732 313.729 29.5059C313.976 29.834 314.16 30.2305 314.283 30.6953C314.406 31.1556 314.468 31.6683 314.468 32.2334ZM312.82 32.377V32.2334C312.82 31.8916 312.788 31.5749 312.725 31.2832C312.661 30.987 312.561 30.7272 312.424 30.5039C312.287 30.2806 312.112 30.1074 311.897 29.9844C311.688 29.8568 311.435 29.793 311.139 29.793C310.847 29.793 310.596 29.8431 310.387 29.9434C310.177 30.0391 310.002 30.1735 309.86 30.3467C309.719 30.5199 309.61 30.7227 309.532 30.9551C309.455 31.1829 309.4 31.4313 309.368 31.7002V33.0264C309.423 33.3545 309.516 33.6553 309.648 33.9287C309.781 34.2021 309.967 34.4209 310.209 34.585C310.455 34.7445 310.77 34.8242 311.152 34.8242C311.449 34.8242 311.701 34.7604 311.911 34.6328C312.121 34.5052 312.292 34.3298 312.424 34.1064C312.561 33.8786 312.661 33.6165 312.725 33.3203C312.788 33.0241 312.82 32.7096 312.82 32.377ZM317.633 28.6035V36H315.979V28.6035H317.633ZM315.869 26.6621C315.869 26.4115 315.951 26.2041 316.115 26.04C316.284 25.8714 316.516 25.7871 316.812 25.7871C317.104 25.7871 317.334 25.8714 317.503 26.04C317.672 26.2041 317.756 26.4115 317.756 26.6621C317.756 26.9082 317.672 27.1133 317.503 27.2773C317.334 27.4414 317.104 27.5234 316.812 27.5234C316.516 27.5234 316.284 27.4414 316.115 27.2773C315.951 27.1133 315.869 26.9082 315.869 26.6621ZM321.071 30.1826V36H319.424V28.6035H320.976L321.071 30.1826ZM320.777 32.0283L320.244 32.0215C320.249 31.4974 320.322 31.0166 320.463 30.5791C320.609 30.1416 320.809 29.7656 321.064 29.4512C321.324 29.1367 321.634 28.8952 321.994 28.7266C322.354 28.5534 322.755 28.4668 323.197 28.4668C323.553 28.4668 323.874 28.5169 324.161 28.6172C324.453 28.7129 324.701 28.8701 324.906 29.0889C325.116 29.3076 325.275 29.5924 325.385 29.9434C325.494 30.2897 325.549 30.7158 325.549 31.2217V36H323.895V31.2148C323.895 30.8594 323.842 30.5791 323.737 30.374C323.637 30.1644 323.489 30.0163 323.293 29.9297C323.102 29.8385 322.862 29.793 322.575 29.793C322.293 29.793 322.04 29.8522 321.816 29.9707C321.593 30.0892 321.404 30.251 321.249 30.4561C321.099 30.6611 320.982 30.8981 320.9 31.167C320.818 31.4359 320.777 31.723 320.777 32.0283ZM331.968 28.6035H333.465V35.7949C333.465 36.4603 333.324 37.0254 333.041 37.4902C332.758 37.9551 332.364 38.3083 331.858 38.5498C331.353 38.7959 330.767 38.9189 330.102 38.9189C329.819 38.9189 329.505 38.8779 329.158 38.7959C328.816 38.7139 328.484 38.5817 328.16 38.3994C327.841 38.2217 327.575 37.987 327.36 37.6953L328.133 36.7246C328.397 37.0391 328.689 37.2692 329.008 37.415C329.327 37.5609 329.662 37.6338 330.013 37.6338C330.391 37.6338 330.712 37.5632 330.977 37.4219C331.245 37.2852 331.453 37.0824 331.599 36.8135C331.744 36.5446 331.817 36.2165 331.817 35.8291V30.2783L331.968 28.6035ZM326.943 32.3838V32.2402C326.943 31.6797 327.012 31.1693 327.148 30.709C327.285 30.2441 327.481 29.8454 327.736 29.5127C327.992 29.1755 328.301 28.918 328.666 28.7402C329.031 28.5579 329.443 28.4668 329.903 28.4668C330.382 28.4668 330.79 28.5534 331.127 28.7266C331.469 28.8997 331.754 29.1481 331.981 29.4717C332.209 29.7907 332.387 30.1735 332.515 30.6201C332.647 31.0622 332.745 31.5544 332.809 32.0967V32.5547C332.749 33.0833 332.649 33.5664 332.508 34.0039C332.367 34.4414 332.18 34.8197 331.947 35.1387C331.715 35.4577 331.428 35.7038 331.086 35.877C330.749 36.0501 330.35 36.1367 329.89 36.1367C329.438 36.1367 329.031 36.0433 328.666 35.8564C328.306 35.6696 327.996 35.4076 327.736 35.0703C327.481 34.7331 327.285 34.3366 327.148 33.8809C327.012 33.4206 326.943 32.9215 326.943 32.3838ZM328.591 32.2402V32.3838C328.591 32.721 328.623 33.0355 328.687 33.3271C328.755 33.6188 328.857 33.8763 328.994 34.0996C329.135 34.3184 329.313 34.4915 329.527 34.6191C329.746 34.7422 330.004 34.8037 330.3 34.8037C330.687 34.8037 331.004 34.7217 331.25 34.5576C331.501 34.3936 331.692 34.1725 331.824 33.8945C331.961 33.612 332.057 33.2975 332.111 32.9512V31.7139C332.084 31.445 332.027 31.1943 331.94 30.9619C331.858 30.7295 331.747 30.5267 331.605 30.3535C331.464 30.1758 331.286 30.0391 331.072 29.9434C330.858 29.8431 330.605 29.793 330.313 29.793C330.017 29.793 329.76 29.8568 329.541 29.9844C329.322 30.112 329.142 30.2874 329.001 30.5107C328.864 30.734 328.762 30.9938 328.693 31.29C328.625 31.5863 328.591 31.903 328.591 32.2402Z" fill="#2D3C4D"></path>
<path d="M192.683 48.956C192.023 48.956 191.495 49.178 191.099 49.622C190.715 50.066 190.487 50.63 190.415 51.314H194.231V52.79H186.941V51.314H188.219C188.351 49.958 188.843 48.932 189.695 48.236C190.547 47.528 191.555 47.174 192.719 47.174C193.895 47.174 194.945 47.42 195.869 47.912V50.432L194.033 50.558V49.712C194.033 49.532 194.009 49.406 193.961 49.334C193.913 49.25 193.781 49.166 193.565 49.082C193.361 48.998 193.067 48.956 192.683 48.956ZM186.941 55.292V53.816H194.231V55.292H190.451C190.595 56 190.853 56.528 191.225 56.876C191.609 57.224 192.161 57.398 192.881 57.398C193.613 57.398 194.315 57.116 194.987 56.552L196.013 57.992C195.113 58.808 193.973 59.216 192.593 59.216C190.133 59.216 188.675 57.908 188.219 55.292H186.941ZM197.373 59V57.614L200.955 53.096C201.327 52.616 201.573 52.298 201.693 52.142C201.813 51.974 201.927 51.746 202.035 51.458C202.155 51.158 202.215 50.804 202.215 50.396C202.215 49.976 202.071 49.634 201.783 49.37C201.507 49.106 201.147 48.974 200.703 48.974C200.271 48.974 199.941 49.01 199.713 49.082C199.497 49.154 199.365 49.238 199.317 49.334C199.281 49.418 199.263 49.556 199.263 49.748V51.026L197.427 50.9V48.02C198.555 47.456 199.713 47.174 200.901 47.174C202.089 47.174 202.983 47.468 203.583 48.056C204.183 48.632 204.483 49.424 204.483 50.432C204.483 51.44 203.973 52.562 202.953 53.798L200.055 57.218H204.555V59H197.373ZM210.435 47.174C213.159 47.174 214.521 49.148 214.521 53.096C214.521 55.196 214.167 56.738 213.459 57.722C212.751 58.694 211.701 59.18 210.309 59.18C208.917 59.18 207.879 58.7 207.195 57.74C206.511 56.768 206.169 55.262 206.169 53.222C206.169 51.182 206.547 49.664 207.303 48.668C208.059 47.672 209.103 47.174 210.435 47.174ZM208.851 56.534C209.199 57.146 209.697 57.452 210.345 57.452C210.993 57.452 211.491 57.134 211.839 56.498C212.199 55.862 212.379 54.758 212.379 53.186C212.379 51.602 212.205 50.498 211.857 49.874C211.521 49.25 211.023 48.938 210.363 48.938C209.703 48.938 209.199 49.274 208.851 49.946C208.515 50.606 208.347 51.716 208.347 53.276C208.347 54.824 208.515 55.91 208.851 56.534ZM218.808 57.578L216.954 61.79L215.82 61.448L216.378 57.794C216.462 57.194 216.756 56.894 217.26 56.894C217.512 56.894 217.704 56.936 217.836 57.02C217.98 57.092 218.094 57.152 218.178 57.2C218.274 57.248 218.34 57.284 218.376 57.308C218.412 57.332 218.484 57.38 218.592 57.452C218.7 57.512 218.772 57.554 218.808 57.578ZM224.41 47.174C227.134 47.174 228.496 49.148 228.496 53.096C228.496 55.196 228.142 56.738 227.434 57.722C226.726 58.694 225.676 59.18 224.284 59.18C222.892 59.18 221.854 58.7 221.17 57.74C220.486 56.768 220.144 55.262 220.144 53.222C220.144 51.182 220.522 49.664 221.278 48.668C222.034 47.672 223.078 47.174 224.41 47.174ZM222.826 56.534C223.174 57.146 223.672 57.452 224.32 57.452C224.968 57.452 225.466 57.134 225.814 56.498C226.174 55.862 226.354 54.758 226.354 53.186C226.354 51.602 226.18 50.498 225.832 49.874C225.496 49.25 224.998 48.938 224.338 48.938C223.678 48.938 223.174 49.274 222.826 49.946C222.49 50.606 222.322 51.716 222.322 53.276C222.322 54.824 222.49 55.91 222.826 56.534ZM234.042 47.174C236.766 47.174 238.128 49.148 238.128 53.096C238.128 55.196 237.774 56.738 237.066 57.722C236.358 58.694 235.308 59.18 233.916 59.18C232.524 59.18 231.486 58.7 230.802 57.74C230.118 56.768 229.776 55.262 229.776 53.222C229.776 51.182 230.154 49.664 230.91 48.668C231.666 47.672 232.71 47.174 234.042 47.174ZM232.458 56.534C232.806 57.146 233.304 57.452 233.952 57.452C234.6 57.452 235.098 57.134 235.446 56.498C235.806 55.862 235.986 54.758 235.986 53.186C235.986 51.602 235.812 50.498 235.464 49.874C235.128 49.25 234.63 48.938 233.97 48.938C233.31 48.938 232.806 49.274 232.458 49.946C232.122 50.606 231.954 51.716 231.954 53.276C231.954 54.824 232.122 55.91 232.458 56.534Z" fill="#2D3C4D"></path>
</g>
<defs>
<filter id="filter0_d_40000010_9942" x="110" y="0" width="264" height="88" filterUnits="userSpaceOnUse" color-interpolation-filters="sRGB">
<feFlood flood-opacity="0" result="BackgroundImageFix"></feFlood>
<feColorMatrix in="SourceAlpha" type="matrix" values="0 0 0 0 0 0 0 0 0 0 0 0 0 0 0 0 0 0 127 0" result="hardAlpha"></feColorMatrix>
<feOffset dy="1"></feOffset>
<feGaussianBlur stdDeviation="2"></feGaussianBlur>
<feComposite in2="hardAlpha" operator="out"></feComposite>
<feColorMatrix type="matrix" values="0 0 0 0 0.0470588 0 0 0 0 0.0470588 0 0 0 0 0.0509804 0 0 0 0.05 0"></feColorMatrix>
<feBlend mode="normal" in2="BackgroundImageFix" result="effect1_dropShadow_40000010_9942"></feBlend>
<feBlend mode="normal" in="SourceGraphic" in2="effect1_dropShadow_40000010_9942" result="shape"></feBlend>
</filter>
</defs>
</svg>