<svg width="374" height="148" viewBox="0 0 374 148" fill="none" xmlns="http://www.w3.org/2000/svg">
<g filter="url(#filter0_d_40000010_9950)">
<path d="M4 15C4 8.37258 9.37258 3 16 3H252C258.627 3 264 8.37258 264 15V131C264 137.627 258.627 143 252 143H16C9.37258 143 4 137.627 4 131V15Z" fill="white" shape-rendering="crispEdges"></path>
<path d="M16 3.5H252C258.351 3.5 263.5 8.64873 263.5 15V131C263.5 137.351 258.351 142.5 252 142.5H16C9.64873 142.5 4.5 137.351 4.5 131V15L4.51465 14.4082C4.82265 8.33195 9.8472 3.5 16 3.5Z" stroke="#E5E5E4" shape-rendering="crispEdges"></path>
<path d="M20 27C20 22.5817 23.5817 19 28 19H60C64.4183 19 68 22.5817 68 27V59C68 63.4183 64.4183 67 60 67H28C23.5817 67 20 63.4183 20 59V27Z" fill="#F7F7F6"></path>
<path d="M50.2258 36C50.5127 36.0001 50.7674 36.1841 50.8577 36.4561L51.886 39.5381L53.7415 39.8887C53.8331 39.9057 53.9206 39.9421 53.9973 39.9951C54.4163 40.2851 54.6663 40.765 54.6663 41.2783V45.333C54.6663 45.7009 54.3681 45.9998 54.0002 46H52.6389C52.8672 46.3926 53.0002 46.8471 53.0002 47.333C53.0002 48.8033 51.8036 50 50.3333 50C48.8629 50 47.6663 48.8033 47.6663 47.333C47.6663 46.8471 47.7996 46.3926 48.0276 46H41.9719C42.2002 46.3926 42.3332 46.8471 42.3333 47.333C42.3333 48.8033 41.1366 50 39.6663 50C38.1961 49.9998 37.0002 48.8032 37.0002 47.333C37.0003 46.8471 37.1326 46.3926 37.3606 46H35.6663C35.2981 45.9998 35.0002 45.7009 35.0002 45.333V44.667C35.0002 44.2991 35.2981 44.0002 35.6663 44C36.0343 44 36.3333 44.299 36.3333 44.667H46.6663V39.333C46.6664 38.9652 46.965 38.667 47.3333 38.667C47.7011 38.667 48.0001 38.9652 48.0002 39.333V44.667H53.3333V41.2783C53.3332 41.2367 53.3226 41.1967 53.303 41.1621L51.2542 40.7754C51.0165 40.7307 50.8217 40.5604 50.7454 40.3311L49.7454 37.333H36.3333V37.667C36.3331 38.0348 36.0342 38.333 35.6663 38.333C35.2982 38.3328 35.0004 38.0347 35.0002 37.667V36.667C35.0002 36.2991 35.2981 36.0002 35.6663 36H50.2258ZM39.6663 46C38.9312 46.0002 38.3334 46.5979 38.3333 47.333C38.3333 48.0682 38.9311 48.6668 39.6663 48.667C40.4016 48.667 41.0002 48.0683 41.0002 47.333C41.0001 46.5978 40.4015 46 39.6663 46ZM50.3333 46C49.598 46 49.0004 46.5978 49.0002 47.333C49.0002 48.0683 49.5979 48.667 50.3333 48.667C51.0686 48.667 51.6663 48.0683 51.6663 47.333C51.6661 46.5978 51.0685 46 50.3333 46ZM46.0002 47C46.3681 47.0002 46.6663 47.2991 46.6663 47.667C46.6661 48.0347 46.368 48.3328 46.0002 48.333H44.0002C43.632 48.333 43.3334 48.0348 43.3333 47.667C43.3333 47.299 43.6319 47 44.0002 47H46.0002ZM36.6663 41.667C37.0342 41.667 37.3331 41.9651 37.3333 42.333C37.3333 42.701 37.0343 43 36.6663 43H35.0002C34.6319 43 34.3333 42.701 34.3333 42.333C34.3334 41.9651 34.632 41.667 35.0002 41.667H36.6663ZM37.6663 39.333C38.0342 39.333 38.3332 39.632 38.3333 40C38.3333 40.368 38.0343 40.667 37.6663 40.667H34.0002C33.6319 40.667 33.3333 40.368 33.3333 40C33.3333 39.632 33.6319 39.333 34.0002 39.333H37.6663Z" fill="#116DB4"></path>
<path d="M82.248 33.4365C82.248 33.2314 82.2161 33.0492 82.1523 32.8896C82.0931 32.7301 81.986 32.5843 81.8311 32.4521C81.6761 32.32 81.4574 32.1924 81.1748 32.0693C80.8968 31.9417 80.5413 31.8118 80.1084 31.6797C79.6344 31.5339 79.1969 31.3721 78.7959 31.1943C78.3994 31.012 78.0531 30.8024 77.7568 30.5654C77.4606 30.3239 77.2305 30.0482 77.0664 29.7383C76.9023 29.4238 76.8203 29.0615 76.8203 28.6514C76.8203 28.2458 76.9046 27.8766 77.0732 27.5439C77.2464 27.2113 77.4902 26.9242 77.8047 26.6826C78.1237 26.4365 78.4997 26.2474 78.9326 26.1152C79.3656 25.9785 79.8441 25.9102 80.3682 25.9102C81.1064 25.9102 81.7422 26.0469 82.2754 26.3203C82.8132 26.5938 83.2256 26.9606 83.5127 27.4209C83.8044 27.8812 83.9502 28.3893 83.9502 28.9453H82.248C82.248 28.6172 82.1774 28.3278 82.0361 28.0771C81.8994 27.8219 81.6898 27.6214 81.4072 27.4756C81.1292 27.3298 80.776 27.2568 80.3477 27.2568C79.9421 27.2568 79.6048 27.3184 79.3359 27.4414C79.0671 27.5645 78.8665 27.7308 78.7344 27.9404C78.6022 28.1501 78.5361 28.387 78.5361 28.6514C78.5361 28.8382 78.5794 29.0091 78.666 29.1641C78.7526 29.3145 78.8848 29.4557 79.0625 29.5879C79.2402 29.7155 79.4635 29.8363 79.7324 29.9502C80.0013 30.0641 80.318 30.1735 80.6826 30.2783C81.234 30.4424 81.7148 30.6247 82.125 30.8252C82.5352 31.0212 82.877 31.2445 83.1504 31.4951C83.4238 31.7458 83.6289 32.0306 83.7656 32.3496C83.9023 32.6641 83.9707 33.0218 83.9707 33.4229C83.9707 33.8421 83.8864 34.2204 83.7178 34.5576C83.5492 34.8903 83.3076 35.1751 82.9932 35.4121C82.6833 35.6445 82.3096 35.8245 81.8721 35.9521C81.4391 36.0752 80.9561 36.1367 80.4229 36.1367C79.9443 36.1367 79.4727 36.0729 79.0078 35.9453C78.5475 35.8177 78.1283 35.624 77.75 35.3643C77.3717 35.0999 77.071 34.7718 76.8477 34.3799C76.6243 33.9834 76.5127 33.5208 76.5127 32.9922H78.2285C78.2285 33.3158 78.2832 33.5915 78.3926 33.8193C78.5065 34.0472 78.6637 34.234 78.8643 34.3799C79.0648 34.5212 79.2972 34.626 79.5615 34.6943C79.8304 34.7627 80.1175 34.7969 80.4229 34.7969C80.8239 34.7969 81.1589 34.7399 81.4277 34.626C81.7012 34.512 81.9062 34.3525 82.043 34.1475C82.1797 33.9424 82.248 33.7054 82.248 33.4365ZM88.585 36.1367C88.0381 36.1367 87.5436 36.0479 87.1016 35.8701C86.6641 35.6878 86.2904 35.4349 85.9805 35.1113C85.6751 34.7878 85.4404 34.4072 85.2764 33.9697C85.1123 33.5322 85.0303 33.0605 85.0303 32.5547V32.2812C85.0303 31.7025 85.1146 31.1784 85.2832 30.709C85.4518 30.2396 85.6865 29.8385 85.9873 29.5059C86.2881 29.1686 86.6436 28.9111 87.0537 28.7334C87.4639 28.5557 87.9082 28.4668 88.3867 28.4668C88.9154 28.4668 89.3779 28.5557 89.7744 28.7334C90.1709 28.9111 90.499 29.1618 90.7588 29.4854C91.0231 29.8044 91.2191 30.1849 91.3467 30.627C91.4788 31.069 91.5449 31.5566 91.5449 32.0898V32.7939H85.8301V31.6113H89.918V31.4814C89.9089 31.1852 89.8496 30.9072 89.7402 30.6475C89.6354 30.3877 89.4736 30.1781 89.2549 30.0186C89.0361 29.859 88.7445 29.7793 88.3799 29.7793C88.1064 29.7793 87.8626 29.8385 87.6484 29.957C87.4388 30.071 87.2633 30.2373 87.1221 30.4561C86.9808 30.6748 86.8714 30.9391 86.7939 31.249C86.721 31.5544 86.6846 31.8984 86.6846 32.2812V32.5547C86.6846 32.8783 86.7279 33.179 86.8145 33.457C86.9056 33.7305 87.0378 33.9697 87.2109 34.1748C87.3841 34.3799 87.5938 34.5417 87.8398 34.6602C88.0859 34.7741 88.3662 34.8311 88.6807 34.8311C89.0771 34.8311 89.4303 34.7513 89.7402 34.5918C90.0501 34.4323 90.319 34.2067 90.5469 33.915L91.415 34.7559C91.2555 34.9883 91.0482 35.2116 90.793 35.4258C90.5378 35.6354 90.2256 35.8063 89.8564 35.9385C89.4919 36.0706 89.068 36.1367 88.585 36.1367ZM94.5938 25.5V36H92.9395V25.5H94.5938ZM98.1621 25.5V36H96.5078V25.5H98.1621ZM103.228 36.1367C102.681 36.1367 102.186 36.0479 101.744 35.8701C101.307 35.6878 100.933 35.4349 100.623 35.1113C100.318 34.7878 100.083 34.4072 99.9189 33.9697C99.7549 33.5322 99.6729 33.0605 99.6729 32.5547V32.2812C99.6729 31.7025 99.7572 31.1784 99.9258 30.709C100.094 30.2396 100.329 29.8385 100.63 29.5059C100.931 29.1686 101.286 28.9111 101.696 28.7334C102.106 28.5557 102.551 28.4668 103.029 28.4668C103.558 28.4668 104.021 28.5557 104.417 28.7334C104.813 28.9111 105.142 29.1618 105.401 29.4854C105.666 29.8044 105.862 30.1849 105.989 30.627C106.121 31.069 106.188 31.5566 106.188 32.0898V32.7939H100.473V31.6113H104.561V31.4814C104.551 31.1852 104.492 30.9072 104.383 30.6475C104.278 30.3877 104.116 30.1781 103.897 30.0186C103.679 29.859 103.387 29.7793 103.022 29.7793C102.749 29.7793 102.505 29.8385 102.291 29.957C102.081 30.071 101.906 30.2373 101.765 30.4561C101.623 30.6748 101.514 30.9391 101.437 31.249C101.364 31.5544 101.327 31.8984 101.327 32.2812V32.5547C101.327 32.8783 101.37 33.179 101.457 33.457C101.548 33.7305 101.68 33.9697 101.854 34.1748C102.027 34.3799 102.236 34.5417 102.482 34.6602C102.729 34.7741 103.009 34.8311 103.323 34.8311C103.72 34.8311 104.073 34.7513 104.383 34.5918C104.693 34.4323 104.962 34.2067 105.189 33.915L106.058 34.7559C105.898 34.9883 105.691 35.2116 105.436 35.4258C105.18 35.6354 104.868 35.8063 104.499 35.9385C104.134 36.0706 103.711 36.1367 103.228 36.1367ZM109.127 30.0117V36H107.479V28.6035H109.052L109.127 30.0117ZM111.39 28.5557L111.376 30.0869C111.276 30.0687 111.166 30.055 111.048 30.0459C110.934 30.0368 110.82 30.0322 110.706 30.0322C110.424 30.0322 110.175 30.0732 109.961 30.1553C109.747 30.2327 109.567 30.3467 109.421 30.4971C109.28 30.6429 109.17 30.8206 109.093 31.0303C109.015 31.2399 108.97 31.4746 108.956 31.7344L108.58 31.7617C108.58 31.2969 108.626 30.8662 108.717 30.4697C108.808 30.0732 108.945 29.7246 109.127 29.4238C109.314 29.123 109.546 28.8883 109.824 28.7197C110.107 28.5511 110.433 28.4668 110.802 28.4668C110.902 28.4668 111.009 28.4759 111.123 28.4941C111.242 28.5124 111.33 28.5329 111.39 28.5557ZM113.495 25.5V26.3818L113.317 29.0137H112.244L112.251 26.4912V25.5H113.495ZM118.458 33.9971C118.458 33.833 118.417 33.6849 118.335 33.5527C118.253 33.416 118.096 33.293 117.863 33.1836C117.635 33.0742 117.298 32.974 116.852 32.8828C116.46 32.7962 116.1 32.6937 115.771 32.5752C115.448 32.4521 115.17 32.304 114.938 32.1309C114.705 31.9577 114.525 31.7526 114.397 31.5156C114.27 31.2786 114.206 31.0052 114.206 30.6953C114.206 30.3945 114.272 30.1097 114.404 29.8408C114.536 29.5719 114.726 29.335 114.972 29.1299C115.218 28.9248 115.516 28.763 115.867 28.6445C116.223 28.526 116.619 28.4668 117.057 28.4668C117.676 28.4668 118.207 28.5716 118.649 28.7812C119.096 28.9863 119.438 29.2666 119.675 29.6221C119.912 29.973 120.03 30.3695 120.03 30.8115H118.383C118.383 30.6156 118.333 30.4333 118.232 30.2646C118.137 30.0915 117.991 29.9525 117.795 29.8477C117.599 29.7383 117.353 29.6836 117.057 29.6836C116.774 29.6836 116.539 29.7292 116.353 29.8203C116.17 29.9069 116.034 30.0208 115.942 30.1621C115.856 30.3034 115.812 30.4583 115.812 30.627C115.812 30.75 115.835 30.8617 115.881 30.9619C115.931 31.0576 116.013 31.1465 116.127 31.2285C116.241 31.306 116.396 31.3789 116.592 31.4473C116.792 31.5156 117.043 31.5817 117.344 31.6455C117.909 31.764 118.394 31.9167 118.8 32.1035C119.21 32.2858 119.524 32.5228 119.743 32.8145C119.962 33.1016 120.071 33.4661 120.071 33.9082C120.071 34.2363 120.001 34.5371 119.859 34.8105C119.723 35.0794 119.522 35.3141 119.258 35.5146C118.993 35.7106 118.677 35.8633 118.308 35.9727C117.943 36.082 117.533 36.1367 117.077 36.1367C116.407 36.1367 115.84 36.0182 115.375 35.7812C114.91 35.5397 114.557 35.2321 114.315 34.8584C114.078 34.4801 113.96 34.0882 113.96 33.6826H115.553C115.571 33.988 115.655 34.2318 115.806 34.4141C115.961 34.5918 116.152 34.7217 116.38 34.8037C116.612 34.8812 116.852 34.9199 117.098 34.9199C117.394 34.9199 117.642 34.8812 117.843 34.8037C118.043 34.7217 118.196 34.6123 118.301 34.4756C118.406 34.3343 118.458 34.1748 118.458 33.9971ZM128.021 34.8242C128.29 34.8242 128.532 34.7718 128.746 34.667C128.965 34.5576 129.14 34.4072 129.272 34.2158C129.409 34.0244 129.484 33.8034 129.498 33.5527H131.05C131.041 34.0312 130.899 34.4665 130.626 34.8584C130.353 35.2503 129.99 35.5625 129.539 35.7949C129.088 36.0228 128.589 36.1367 128.042 36.1367C127.477 36.1367 126.985 36.041 126.565 35.8496C126.146 35.6536 125.798 35.3848 125.52 35.043C125.242 34.7012 125.032 34.307 124.891 33.8604C124.754 33.4137 124.686 32.9352 124.686 32.4248V32.1855C124.686 31.6751 124.754 31.1966 124.891 30.75C125.032 30.2988 125.242 29.9023 125.52 29.5605C125.798 29.2188 126.146 28.9521 126.565 28.7607C126.985 28.5648 127.475 28.4668 128.035 28.4668C128.628 28.4668 129.147 28.5853 129.594 28.8223C130.04 29.0547 130.391 29.3805 130.646 29.7998C130.906 30.2145 131.041 30.6976 131.05 31.249H129.498C129.484 30.9756 129.416 30.7295 129.293 30.5107C129.174 30.2874 129.006 30.1097 128.787 29.9775C128.573 29.8454 128.315 29.7793 128.015 29.7793C127.682 29.7793 127.406 29.8477 127.188 29.9844C126.969 30.1165 126.798 30.2988 126.675 30.5312C126.552 30.7591 126.463 31.0166 126.408 31.3037C126.358 31.5863 126.333 31.8802 126.333 32.1855V32.4248C126.333 32.7301 126.358 33.0264 126.408 33.3135C126.458 33.6006 126.545 33.8581 126.668 34.0859C126.796 34.3092 126.969 34.4893 127.188 34.626C127.406 34.7581 127.684 34.8242 128.021 34.8242ZM132 32.3838V32.2266C132 31.6934 132.077 31.1989 132.232 30.7432C132.387 30.2829 132.611 29.8841 132.902 29.5469C133.199 29.2051 133.559 28.9408 133.982 28.7539C134.411 28.5625 134.894 28.4668 135.432 28.4668C135.974 28.4668 136.457 28.5625 136.881 28.7539C137.309 28.9408 137.672 29.2051 137.968 29.5469C138.264 29.8841 138.49 30.2829 138.645 30.7432C138.799 31.1989 138.877 31.6934 138.877 32.2266V32.3838C138.877 32.917 138.799 33.4115 138.645 33.8672C138.49 34.3229 138.264 34.7217 137.968 35.0635C137.672 35.4007 137.312 35.665 136.888 35.8564C136.464 36.0433 135.983 36.1367 135.445 36.1367C134.903 36.1367 134.418 36.0433 133.989 35.8564C133.565 35.665 133.205 35.4007 132.909 35.0635C132.613 34.7217 132.387 34.3229 132.232 33.8672C132.077 33.4115 132 32.917 132 32.3838ZM133.647 32.2266V32.3838C133.647 32.7165 133.682 33.0309 133.75 33.3271C133.818 33.6234 133.925 33.8831 134.071 34.1064C134.217 34.3298 134.404 34.5052 134.632 34.6328C134.86 34.7604 135.131 34.8242 135.445 34.8242C135.751 34.8242 136.015 34.7604 136.238 34.6328C136.466 34.5052 136.653 34.3298 136.799 34.1064C136.945 33.8831 137.052 33.6234 137.12 33.3271C137.193 33.0309 137.229 32.7165 137.229 32.3838V32.2266C137.229 31.8984 137.193 31.5885 137.12 31.2969C137.052 31.0007 136.942 30.7386 136.792 30.5107C136.646 30.2829 136.459 30.1051 136.231 29.9775C136.008 29.8454 135.742 29.7793 135.432 29.7793C135.122 29.7793 134.853 29.8454 134.625 29.9775C134.402 30.1051 134.217 30.2829 134.071 30.5107C133.925 30.7386 133.818 31.0007 133.75 31.2969C133.682 31.5885 133.647 31.8984 133.647 32.2266ZM144.708 34.2568V28.6035H146.362V36H144.804L144.708 34.2568ZM144.94 32.7188L145.494 32.7051C145.494 33.2018 145.439 33.6598 145.33 34.0791C145.221 34.4938 145.052 34.8561 144.824 35.166C144.596 35.4714 144.305 35.7106 143.949 35.8838C143.594 36.0524 143.168 36.1367 142.671 36.1367C142.311 36.1367 141.98 36.0843 141.68 35.9795C141.379 35.8747 141.119 35.7129 140.9 35.4941C140.686 35.2754 140.52 34.9906 140.401 34.6396C140.283 34.2887 140.224 33.8695 140.224 33.3818V28.6035H141.871V33.3955C141.871 33.6644 141.903 33.89 141.967 34.0723C142.031 34.25 142.117 34.3936 142.227 34.5029C142.336 34.6123 142.464 34.6898 142.609 34.7354C142.755 34.7809 142.91 34.8037 143.074 34.8037C143.544 34.8037 143.913 34.7126 144.182 34.5303C144.455 34.3434 144.649 34.0928 144.763 33.7783C144.881 33.4639 144.94 33.1107 144.94 32.7188ZM149.685 30.1826V36H148.037V28.6035H149.589L149.685 30.1826ZM149.391 32.0283L148.857 32.0215C148.862 31.4974 148.935 31.0166 149.076 30.5791C149.222 30.1416 149.423 29.7656 149.678 29.4512C149.938 29.1367 150.247 28.8952 150.607 28.7266C150.967 28.5534 151.368 28.4668 151.811 28.4668C152.166 28.4668 152.487 28.5169 152.774 28.6172C153.066 28.7129 153.314 28.8701 153.52 29.0889C153.729 29.3076 153.889 29.5924 153.998 29.9434C154.107 30.2897 154.162 30.7158 154.162 31.2217V36H152.508V31.2148C152.508 30.8594 152.455 30.5791 152.351 30.374C152.25 30.1644 152.102 30.0163 151.906 29.9297C151.715 29.8385 151.476 29.793 151.188 29.793C150.906 29.793 150.653 29.8522 150.43 29.9707C150.206 30.0892 150.017 30.251 149.862 30.4561C149.712 30.6611 149.596 30.8981 149.514 31.167C149.432 31.4359 149.391 31.723 149.391 32.0283ZM159.234 28.6035V29.8066H155.064V28.6035H159.234ZM156.268 26.792H157.915V33.9561C157.915 34.1839 157.947 34.3594 158.011 34.4824C158.079 34.6009 158.173 34.6807 158.291 34.7217C158.41 34.7627 158.549 34.7832 158.708 34.7832C158.822 34.7832 158.931 34.7764 159.036 34.7627C159.141 34.749 159.225 34.7354 159.289 34.7217L159.296 35.9795C159.159 36.0205 159 36.057 158.817 36.0889C158.64 36.1208 158.435 36.1367 158.202 36.1367C157.824 36.1367 157.489 36.0706 157.197 35.9385C156.906 35.8018 156.678 35.5807 156.514 35.2754C156.35 34.9701 156.268 34.5645 156.268 34.0586V26.792ZM163.767 36.1367C163.22 36.1367 162.725 36.0479 162.283 35.8701C161.846 35.6878 161.472 35.4349 161.162 35.1113C160.857 34.7878 160.622 34.4072 160.458 33.9697C160.294 33.5322 160.212 33.0605 160.212 32.5547V32.2812C160.212 31.7025 160.296 31.1784 160.465 30.709C160.633 30.2396 160.868 29.8385 161.169 29.5059C161.47 29.1686 161.825 28.9111 162.235 28.7334C162.646 28.5557 163.09 28.4668 163.568 28.4668C164.097 28.4668 164.56 28.5557 164.956 28.7334C165.353 28.9111 165.681 29.1618 165.94 29.4854C166.205 29.8044 166.401 30.1849 166.528 30.627C166.66 31.069 166.727 31.5566 166.727 32.0898V32.7939H161.012V31.6113H165.1V31.4814C165.09 31.1852 165.031 30.9072 164.922 30.6475C164.817 30.3877 164.655 30.1781 164.437 30.0186C164.218 29.859 163.926 29.7793 163.562 29.7793C163.288 29.7793 163.044 29.8385 162.83 29.957C162.62 30.071 162.445 30.2373 162.304 30.4561C162.162 30.6748 162.053 30.9391 161.976 31.249C161.903 31.5544 161.866 31.8984 161.866 32.2812V32.5547C161.866 32.8783 161.91 33.179 161.996 33.457C162.087 33.7305 162.219 33.9697 162.393 34.1748C162.566 34.3799 162.775 34.5417 163.021 34.6602C163.268 34.7741 163.548 34.8311 163.862 34.8311C164.259 34.8311 164.612 34.7513 164.922 34.5918C165.232 34.4323 165.501 34.2067 165.729 33.915L166.597 34.7559C166.437 34.9883 166.23 35.2116 165.975 35.4258C165.719 35.6354 165.407 35.8063 165.038 35.9385C164.674 36.0706 164.25 36.1367 163.767 36.1367ZM169.666 30.0117V36H168.019V28.6035H169.591L169.666 30.0117ZM171.929 28.5557L171.915 30.0869C171.815 30.0687 171.705 30.055 171.587 30.0459C171.473 30.0368 171.359 30.0322 171.245 30.0322C170.963 30.0322 170.714 30.0732 170.5 30.1553C170.286 30.2327 170.106 30.3467 169.96 30.4971C169.819 30.6429 169.709 30.8206 169.632 31.0303C169.554 31.2399 169.509 31.4746 169.495 31.7344L169.119 31.7617C169.119 31.2969 169.165 30.8662 169.256 30.4697C169.347 30.0732 169.484 29.7246 169.666 29.4238C169.853 29.123 170.085 28.8883 170.363 28.7197C170.646 28.5511 170.972 28.4668 171.341 28.4668C171.441 28.4668 171.548 28.4759 171.662 28.4941C171.781 28.5124 171.869 28.5329 171.929 28.5557ZM176.276 31.0918V32.4043H172.66V31.0918H176.276ZM177.404 32.3838V32.2266C177.404 31.6934 177.482 31.1989 177.637 30.7432C177.792 30.2829 178.015 29.8841 178.307 29.5469C178.603 29.2051 178.963 28.9408 179.387 28.7539C179.815 28.5625 180.298 28.4668 180.836 28.4668C181.378 28.4668 181.861 28.5625 182.285 28.7539C182.714 28.9408 183.076 29.2051 183.372 29.5469C183.668 29.8841 183.894 30.2829 184.049 30.7432C184.204 31.1989 184.281 31.6934 184.281 32.2266V32.3838C184.281 32.917 184.204 33.4115 184.049 33.8672C183.894 34.3229 183.668 34.7217 183.372 35.0635C183.076 35.4007 182.716 35.665 182.292 35.8564C181.868 36.0433 181.387 36.1367 180.85 36.1367C180.307 36.1367 179.822 36.0433 179.394 35.8564C178.97 35.665 178.61 35.4007 178.313 35.0635C178.017 34.7217 177.792 34.3229 177.637 33.8672C177.482 33.4115 177.404 32.917 177.404 32.3838ZM179.052 32.2266V32.3838C179.052 32.7165 179.086 33.0309 179.154 33.3271C179.223 33.6234 179.33 33.8831 179.476 34.1064C179.621 34.3298 179.808 34.5052 180.036 34.6328C180.264 34.7604 180.535 34.8242 180.85 34.8242C181.155 34.8242 181.419 34.7604 181.643 34.6328C181.87 34.5052 182.057 34.3298 182.203 34.1064C182.349 33.8831 182.456 33.6234 182.524 33.3271C182.597 33.0309 182.634 32.7165 182.634 32.3838V32.2266C182.634 31.8984 182.597 31.5885 182.524 31.2969C182.456 31.0007 182.347 30.7386 182.196 30.5107C182.05 30.2829 181.864 30.1051 181.636 29.9775C181.412 29.8454 181.146 29.7793 180.836 29.7793C180.526 29.7793 180.257 29.8454 180.029 29.9775C179.806 30.1051 179.621 30.2829 179.476 30.5107C179.33 30.7386 179.223 31.0007 179.154 31.2969C179.086 31.5885 179.052 31.8984 179.052 32.2266ZM187.891 36H186.243V27.8926C186.243 27.3411 186.346 26.8786 186.551 26.5049C186.76 26.1266 187.059 25.8418 187.446 25.6504C187.834 25.4544 188.292 25.3564 188.82 25.3564C188.984 25.3564 189.146 25.3678 189.306 25.3906C189.465 25.4089 189.62 25.4385 189.771 25.4795L189.729 26.751C189.638 26.7282 189.538 26.7122 189.429 26.7031C189.324 26.694 189.21 26.6895 189.087 26.6895C188.836 26.6895 188.62 26.7373 188.438 26.833C188.26 26.9242 188.123 27.0586 188.027 27.2363C187.936 27.4141 187.891 27.6328 187.891 27.8926V36ZM189.415 28.6035V29.8066H185.108V28.6035H189.415ZM192.84 36H191.192V27.8926C191.192 27.3411 191.295 26.8786 191.5 26.5049C191.71 26.1266 192.008 25.8418 192.396 25.6504C192.783 25.4544 193.241 25.3564 193.77 25.3564C193.934 25.3564 194.095 25.3678 194.255 25.3906C194.414 25.4089 194.569 25.4385 194.72 25.4795L194.679 26.751C194.588 26.7282 194.487 26.7122 194.378 26.7031C194.273 26.694 194.159 26.6895 194.036 26.6895C193.785 26.6895 193.569 26.7373 193.387 26.833C193.209 26.9242 193.072 27.0586 192.977 27.2363C192.885 27.4141 192.84 27.6328 192.84 27.8926V36ZM194.364 28.6035V29.8066H190.058V28.6035H194.364ZM198.657 36.1367C198.11 36.1367 197.616 36.0479 197.174 35.8701C196.736 35.6878 196.363 35.4349 196.053 35.1113C195.747 34.7878 195.513 34.4072 195.349 33.9697C195.185 33.5322 195.103 33.0605 195.103 32.5547V32.2812C195.103 31.7025 195.187 31.1784 195.355 30.709C195.524 30.2396 195.759 29.8385 196.06 29.5059C196.36 29.1686 196.716 28.9111 197.126 28.7334C197.536 28.5557 197.98 28.4668 198.459 28.4668C198.988 28.4668 199.45 28.5557 199.847 28.7334C200.243 28.9111 200.571 29.1618 200.831 29.4854C201.095 29.8044 201.291 30.1849 201.419 30.627C201.551 31.069 201.617 31.5566 201.617 32.0898V32.7939H195.902V31.6113H199.99V31.4814C199.981 31.1852 199.922 30.9072 199.812 30.6475C199.708 30.3877 199.546 30.1781 199.327 30.0186C199.108 29.859 198.817 29.7793 198.452 29.7793C198.179 29.7793 197.935 29.8385 197.721 29.957C197.511 30.071 197.336 30.2373 197.194 30.4561C197.053 30.6748 196.944 30.9391 196.866 31.249C196.793 31.5544 196.757 31.8984 196.757 32.2812V32.5547C196.757 32.8783 196.8 33.179 196.887 33.457C196.978 33.7305 197.11 33.9697 197.283 34.1748C197.456 34.3799 197.666 34.5417 197.912 34.6602C198.158 34.7741 198.438 34.8311 198.753 34.8311C199.149 34.8311 199.503 34.7513 199.812 34.5918C200.122 34.4323 200.391 34.2067 200.619 33.915L201.487 34.7559C201.328 34.9883 201.12 35.2116 200.865 35.4258C200.61 35.6354 200.298 35.8063 199.929 35.9385C199.564 36.0706 199.14 36.1367 198.657 36.1367ZM204.557 30.0117V36H202.909V28.6035H204.481L204.557 30.0117ZM206.819 28.5557L206.806 30.0869C206.705 30.0687 206.596 30.055 206.478 30.0459C206.364 30.0368 206.25 30.0322 206.136 30.0322C205.853 30.0322 205.605 30.0732 205.391 30.1553C205.176 30.2327 204.996 30.3467 204.851 30.4971C204.709 30.6429 204.6 30.8206 204.522 31.0303C204.445 31.2399 204.399 31.4746 204.386 31.7344L204.01 31.7617C204.01 31.2969 204.055 30.8662 204.146 30.4697C204.238 30.0732 204.374 29.7246 204.557 29.4238C204.743 29.123 204.976 28.8883 205.254 28.7197C205.536 28.5511 205.862 28.4668 206.231 28.4668C206.332 28.4668 206.439 28.4759 206.553 28.4941C206.671 28.5124 206.76 28.5329 206.819 28.5557Z" fill="#2D3C4D"></path>
<path d="M82.5255 48.956C81.8655 48.956 81.3375 49.178 80.9415 49.622C80.5575 50.066 80.3295 50.63 80.2575 51.314H84.0735V52.79H76.7835V51.314H78.0615C78.1935 49.958 78.6855 48.932 79.5375 48.236C80.3895 47.528 81.3975 47.174 82.5615 47.174C83.7375 47.174 84.7875 47.42 85.7115 47.912V50.432L83.8755 50.558V49.712C83.8755 49.532 83.8515 49.406 83.8035 49.334C83.7555 49.25 83.6235 49.166 83.4075 49.082C83.2035 48.998 82.9095 48.956 82.5255 48.956ZM76.7835 55.292V53.816H84.0735V55.292H80.2935C80.4375 56 80.6955 56.528 81.0675 56.876C81.4515 57.224 82.0035 57.398 82.7235 57.398C83.4555 57.398 84.1575 57.116 84.8295 56.552L85.8555 57.992C84.9555 58.808 83.8155 59.216 82.4355 59.216C79.9755 59.216 78.5175 57.908 78.0615 55.292H76.7835ZM87.2153 59V57.614L90.7973 53.096C91.1693 52.616 91.4153 52.298 91.5353 52.142C91.6553 51.974 91.7693 51.746 91.8773 51.458C91.9973 51.158 92.0573 50.804 92.0573 50.396C92.0573 49.976 91.9133 49.634 91.6253 49.37C91.3493 49.106 90.9893 48.974 90.5453 48.974C90.1133 48.974 89.7833 49.01 89.5553 49.082C89.3393 49.154 89.2073 49.238 89.1593 49.334C89.1233 49.418 89.1053 49.556 89.1053 49.748V51.026L87.2693 50.9V48.02C88.3973 47.456 89.5553 47.174 90.7433 47.174C91.9313 47.174 92.8253 47.468 93.4253 48.056C94.0253 48.632 94.3253 49.424 94.3253 50.432C94.3253 51.44 93.8153 52.562 92.7953 53.798L89.8973 57.218H94.3973V59H87.2153ZM103.162 49.118H99.0401L98.6801 51.872C100.024 51.968 101.116 52.322 101.956 52.934C102.808 53.534 103.234 54.428 103.234 55.616C103.234 56.588 102.91 57.428 102.262 58.136C101.614 58.844 100.606 59.198 99.2381 59.198C98.5661 59.198 97.9061 59.108 97.2581 58.928C96.6221 58.748 96.1121 58.538 95.7281 58.298L96.4481 56.642C97.3841 57.158 98.2841 57.416 99.1481 57.416C100.372 57.416 100.984 56.828 100.984 55.652C100.984 54.188 99.5501 53.456 96.6821 53.456L97.4561 47.408H101.038C101.314 47.408 101.452 47.24 101.452 46.904V46.13L103.162 46.256V49.118ZM107.965 57.578L106.111 61.79L104.977 61.448L105.535 57.794C105.619 57.194 105.913 56.894 106.417 56.894C106.669 56.894 106.861 56.936 106.993 57.02C107.137 57.092 107.251 57.152 107.335 57.2C107.431 57.248 107.497 57.284 107.533 57.308C107.569 57.332 107.641 57.38 107.749 57.452C107.857 57.512 107.929 57.554 107.965 57.578ZM113.567 47.174C116.291 47.174 117.653 49.148 117.653 53.096C117.653 55.196 117.299 56.738 116.591 57.722C115.883 58.694 114.833 59.18 113.441 59.18C112.049 59.18 111.011 58.7 110.327 57.74C109.643 56.768 109.301 55.262 109.301 53.222C109.301 51.182 109.679 49.664 110.435 48.668C111.191 47.672 112.235 47.174 113.567 47.174ZM111.983 56.534C112.331 57.146 112.829 57.452 113.477 57.452C114.125 57.452 114.623 57.134 114.971 56.498C115.331 55.862 115.511 54.758 115.511 53.186C115.511 51.602 115.337 50.498 114.989 49.874C114.653 49.25 114.155 48.938 113.495 48.938C112.835 48.938 112.331 49.274 111.983 49.946C111.647 50.606 111.479 51.716 111.479 53.276C111.479 54.824 111.647 55.91 111.983 56.534ZM123.2 47.174C125.924 47.174 127.286 49.148 127.286 53.096C127.286 55.196 126.932 56.738 126.224 57.722C125.516 58.694 124.466 59.18 123.074 59.18C121.682 59.18 120.644 58.7 119.96 57.74C119.276 56.768 118.934 55.262 118.934 53.222C118.934 51.182 119.312 49.664 120.068 48.668C120.824 47.672 121.868 47.174 123.2 47.174ZM121.616 56.534C121.964 57.146 122.462 57.452 123.11 57.452C123.758 57.452 124.256 57.134 124.604 56.498C124.964 55.862 125.144 54.758 125.144 53.186C125.144 51.602 124.97 50.498 124.622 49.874C124.286 49.25 123.788 48.938 123.128 48.938C122.468 48.938 121.964 49.274 121.616 49.946C121.28 50.606 121.112 51.716 121.112 53.276C121.112 54.824 121.28 55.91 121.616 56.534Z" fill="#2D3C4D"></path>
<path d="M20 91C20 86.5817 23.5817 83 28 83H240C244.418 83 248 86.5817 248 91V119C248 123.418 244.418 127 240 127H28C23.5817 127 20 123.418 20 119V91Z" fill="#116DB4"></path>
<g clip-path="url(#clip0_40000010_9950)">
<path d="M91.024 108.272V111.168C90.032 111.851 88.8 112.192 87.328 112.192C85.856 112.192 84.704 111.733 83.872 110.816C83.0507 109.888 82.64 108.517 82.64 106.704C82.64 105.904 82.7413 105.184 82.944 104.544C83.1573 103.904 83.4293 103.376 83.76 102.96C84.1013 102.544 84.496 102.197 84.944 101.92C85.7973 101.419 86.7627 101.168 87.84 101.168C88.928 101.168 89.9413 101.387 90.88 101.824V104.544L89.248 104.656V103.408C89.248 103.248 89.2267 103.131 89.184 103.056C89.0667 102.853 88.5813 102.752 87.728 102.752C85.6693 102.752 84.64 104.027 84.64 106.576C84.64 109.264 85.568 110.608 87.424 110.608C88.16 110.608 88.7253 110.48 89.12 110.224V107.84H89.104L87.872 107.792V106.432H91.856V107.712L91.488 107.744C91.3173 107.765 91.1947 107.813 91.12 107.888C91.056 107.952 91.024 108.08 91.024 108.272ZM96.458 110.832C97.6207 110.832 98.202 109.893 98.202 108.016C98.202 107.067 98.0687 106.347 97.802 105.856C97.546 105.365 97.1087 105.12 96.49 105.12C95.882 105.12 95.434 105.355 95.146 105.824C94.858 106.293 94.714 106.933 94.714 107.744C94.714 109.248 94.9913 110.192 95.546 110.576C95.7913 110.747 96.0953 110.832 96.458 110.832ZM92.778 107.968C92.778 107.179 92.8953 106.496 93.13 105.92C93.3647 105.333 93.6793 104.885 94.074 104.576C94.8313 104 95.6687 103.712 96.586 103.712C97.226 103.712 97.7647 103.819 98.202 104.032C98.65 104.235 98.9967 104.475 99.242 104.752C99.498 105.019 99.7113 105.413 99.882 105.936C100.063 106.448 100.154 107.056 100.154 107.76C100.154 109.232 99.7967 110.347 99.082 111.104C98.3673 111.861 97.45 112.24 96.33 112.24C95.2207 112.24 94.3513 111.883 93.722 111.168C93.0927 110.443 92.778 109.376 92.778 107.968ZM106.21 102.256H107.25V103.952H109.378L109.218 105.296H107.25V109.504C107.25 109.973 107.336 110.304 107.506 110.496C107.677 110.677 107.938 110.768 108.29 110.768C108.653 110.768 109.016 110.656 109.378 110.432L109.858 111.664C109.325 112.037 108.648 112.224 107.826 112.224C107.346 112.224 106.941 112.16 106.61 112.032C106.28 111.915 106.034 111.781 105.874 111.632C105.714 111.483 105.592 111.264 105.506 110.976C105.421 110.688 105.373 110.464 105.362 110.304C105.352 110.133 105.346 109.888 105.346 109.568V105.296H104.21L104.37 104.128C104.872 104.085 105.25 103.909 105.506 103.6C105.762 103.28 105.997 102.832 106.21 102.256ZM113.833 110.832C114.996 110.832 115.577 109.893 115.577 108.016C115.577 107.067 115.444 106.347 115.177 105.856C114.921 105.365 114.484 105.12 113.865 105.12C113.257 105.12 112.809 105.355 112.521 105.824C112.233 106.293 112.089 106.933 112.089 107.744C112.089 109.248 112.366 110.192 112.921 110.576C113.166 110.747 113.47 110.832 113.833 110.832ZM110.153 107.968C110.153 107.179 110.27 106.496 110.505 105.92C110.74 105.333 111.054 104.885 111.449 104.576C112.206 104 113.044 103.712 113.961 103.712C114.601 103.712 115.14 103.819 115.577 104.032C116.025 104.235 116.372 104.475 116.617 104.752C116.873 105.019 117.086 105.413 117.257 105.936C117.438 106.448 117.529 107.056 117.529 107.76C117.529 109.232 117.172 110.347 116.457 111.104C115.742 111.861 114.825 112.24 113.705 112.24C112.596 112.24 111.726 111.883 111.097 111.168C110.468 110.443 110.153 109.376 110.153 107.968ZM122.705 113.52V105.776C122.705 105.595 122.673 105.472 122.609 105.408C122.556 105.333 122.455 105.296 122.305 105.296L121.633 105.248V103.952H124.337V104.992C124.508 104.672 124.817 104.379 125.265 104.112C125.713 103.845 126.247 103.712 126.865 103.712C128.796 103.712 129.761 105.067 129.761 107.776C129.761 109.216 129.447 110.32 128.817 111.088C128.188 111.856 127.335 112.24 126.257 112.24C125.617 112.24 125.047 112.085 124.545 111.776V113.984L125.841 114.048V115.312H121.713V114.096L122.241 114.048C122.401 114.027 122.519 113.979 122.593 113.904C122.668 113.84 122.705 113.712 122.705 113.52ZM127.777 107.936C127.777 106.155 127.239 105.264 126.161 105.264C125.713 105.264 125.329 105.403 125.009 105.68C124.7 105.947 124.545 106.267 124.545 106.64V110.32C124.951 110.587 125.441 110.72 126.017 110.72C126.604 110.72 127.041 110.453 127.329 109.92C127.628 109.387 127.777 108.725 127.777 107.936ZM138.087 104.272V110.224C138.087 110.395 138.114 110.512 138.167 110.576C138.231 110.64 138.338 110.677 138.487 110.688L138.999 110.72V112H136.455V111.072L136.407 111.056C135.874 111.824 135.143 112.208 134.215 112.208C133.127 112.208 132.322 111.861 131.799 111.168C131.276 110.475 131.015 109.525 131.015 108.32C131.015 106.869 131.367 105.739 132.071 104.928C132.775 104.117 133.831 103.712 135.239 103.712C136.146 103.712 137.095 103.899 138.087 104.272ZM136.231 109.456V105.312C135.932 105.173 135.522 105.104 134.999 105.104C134.284 105.104 133.767 105.392 133.447 105.968C133.127 106.544 132.967 107.307 132.967 108.256C132.967 109.984 133.522 110.848 134.631 110.848C135.1 110.848 135.484 110.709 135.783 110.432C136.082 110.144 136.231 109.819 136.231 109.456ZM145.869 111.696V110.48C145.282 111.312 144.418 111.728 143.277 111.728C141.624 111.728 140.797 110.805 140.797 108.96V105.744C140.797 105.456 140.664 105.307 140.397 105.296L139.885 105.264V103.952H142.701V108.544C142.701 109.109 142.781 109.536 142.941 109.824C143.101 110.112 143.432 110.256 143.933 110.256C144.434 110.256 144.834 110.101 145.133 109.792C145.442 109.483 145.597 109.109 145.597 108.672V105.776C145.597 105.595 145.565 105.472 145.501 105.408C145.448 105.333 145.346 105.296 145.197 105.296L144.685 105.264V103.952H147.501V111.696C147.501 112.987 147.186 113.931 146.557 114.528C145.938 115.125 144.994 115.424 143.725 115.424C142.466 115.424 141.485 115.248 140.781 114.896V112.672L142.301 112.544V113.312C142.301 113.6 142.434 113.792 142.701 113.888C142.968 113.995 143.336 114.048 143.805 114.048C145.181 114.048 145.869 113.264 145.869 111.696ZM149.057 105.248V103.952H151.761V104.992C152.358 104.139 153.174 103.712 154.209 103.712C155.254 103.712 155.958 104.139 156.321 104.992C156.918 104.139 157.729 103.712 158.753 103.712C159.521 103.712 160.113 103.947 160.529 104.416C160.945 104.875 161.153 105.568 161.153 106.496V110.672L162.065 110.72V112H158.257V110.784L158.785 110.736C158.945 110.715 159.057 110.672 159.121 110.608C159.196 110.533 159.238 110.405 159.249 110.224V106.912C159.249 106.325 159.18 105.893 159.041 105.616C158.913 105.328 158.604 105.184 158.113 105.184C157.622 105.184 157.244 105.333 156.977 105.632C156.721 105.931 156.593 106.331 156.593 106.832V110.672L157.473 110.72V112H153.697V110.784L154.225 110.736C154.385 110.715 154.502 110.672 154.577 110.608C154.652 110.533 154.689 110.4 154.689 110.208V106.912C154.689 106.325 154.62 105.893 154.481 105.616C154.353 105.328 154.038 105.184 153.537 105.184C153.046 105.184 152.673 105.339 152.417 105.648C152.161 105.957 152.033 106.341 152.033 106.8V110.672L152.897 110.72V112H149.121V110.784L149.649 110.736C149.809 110.715 149.926 110.672 150.001 110.608C150.076 110.533 150.113 110.4 150.113 110.208H150.129V105.792C150.129 105.611 150.097 105.488 150.033 105.424C149.98 105.349 149.878 105.307 149.729 105.296L149.057 105.248ZM167.028 103.712C167.828 103.712 168.463 103.909 168.932 104.304C169.402 104.688 169.636 105.232 169.636 105.936C169.636 106.405 169.535 106.821 169.332 107.184C169.13 107.536 168.879 107.813 168.58 108.016C168.282 108.219 167.919 108.384 167.492 108.512C166.778 108.725 165.972 108.832 165.076 108.832C165.108 109.397 165.284 109.856 165.604 110.208C165.924 110.549 166.415 110.72 167.076 110.72C167.738 110.72 168.399 110.485 169.06 110.016L169.668 111.312C169.455 111.504 169.092 111.701 168.58 111.904C168.079 112.107 167.503 112.208 166.852 112.208C165.551 112.208 164.596 111.851 163.988 111.136C163.38 110.411 163.076 109.419 163.076 108.16C163.076 106.901 163.423 105.845 164.116 104.992C164.81 104.139 165.78 103.712 167.028 103.712ZM166.292 107.376C166.687 107.301 167.05 107.147 167.38 106.912C167.711 106.667 167.876 106.379 167.876 106.048C167.876 105.397 167.556 105.072 166.916 105.072C166.319 105.072 165.86 105.312 165.54 105.792C165.22 106.261 165.044 106.827 165.012 107.488C165.482 107.477 165.908 107.44 166.292 107.376ZM170.666 105.232V103.952H173.37V104.992C173.648 104.597 174.016 104.288 174.474 104.064C174.933 103.829 175.429 103.712 175.962 103.712C176.773 103.712 177.397 103.947 177.834 104.416C178.282 104.875 178.506 105.568 178.506 106.496V110.672L179.418 110.72V112H175.61V110.784L176.138 110.736C176.298 110.715 176.416 110.672 176.49 110.608C176.565 110.533 176.602 110.4 176.602 110.208V106.912C176.602 106.325 176.512 105.893 176.33 105.616C176.149 105.328 175.802 105.184 175.29 105.184C174.789 105.184 174.389 105.344 174.09 105.664C173.792 105.984 173.642 106.363 173.642 106.8V110.672L174.554 110.72V112H170.746V110.784L171.274 110.736C171.434 110.715 171.552 110.672 171.626 110.608C171.701 110.533 171.738 110.4 171.738 110.208V105.776C171.738 105.456 171.605 105.291 171.338 105.28L170.666 105.232ZM181.492 102.256H182.532V103.952H184.66L184.5 105.296H182.532V109.504C182.532 109.973 182.617 110.304 182.788 110.496C182.958 110.677 183.22 110.768 183.572 110.768C183.934 110.768 184.297 110.656 184.66 110.432L185.14 111.664C184.606 112.037 183.929 112.224 183.108 112.224C182.628 112.224 182.222 112.16 181.892 112.032C181.561 111.915 181.316 111.781 181.156 111.632C180.996 111.483 180.873 111.264 180.788 110.976C180.702 110.688 180.654 110.464 180.644 110.304C180.633 110.133 180.628 109.888 180.628 109.568V105.296H179.492L179.652 104.128C180.153 104.085 180.532 103.909 180.788 103.6C181.044 103.28 181.278 102.832 181.492 102.256Z" fill="#FBFBFA"></path>
</g>
</g>
<defs>
<filter id="filter0_d_40000010_9950" x="0" y="0" width="268" height="148" filterUnits="userSpaceOnUse" color-interpolation-filters="sRGB">
<feFlood flood-opacity="0" result="BackgroundImageFix"></feFlood>
<feColorMatrix in="SourceAlpha" type="matrix" values="0 0 0 0 0 0 0 0 0 0 0 0 0 0 0 0 0 0 127 0" result="hardAlpha"></feColorMatrix>
<feOffset dy="1"></feOffset>
<feGaussianBlur stdDeviation="2"></feGaussianBlur>
<feComposite in2="hardAlpha" operator="out"></feComposite>
<feColorMatrix type="matrix" values="0 0 0 0 0.0470588 0 0 0 0 0.0470588 0 0 0 0 0.0509804 0 0 0 0.05 0"></feColorMatrix>
<feBlend mode="normal" in2="BackgroundImageFix" result="effect1_dropShadow_40000010_9950"></feBlend>
<feBlend mode="normal" in="SourceGraphic" in2="effect1_dropShadow_40000010_9950" result="shape"></feBlend>
</filter>
<clipPath id="clip0_40000010_9950">
<rect width="104" height="28" fill="white" transform="translate(82 91)"></rect>
</clipPath>
</defs>
</svg>